<svg width="175" height="34" viewBox="0 0 175 34" fill="none" xmlns="http://www.w3.org/2000/svg">
<path d="M175 9.26053L168.936 18.8789V24.7395H165.274V18.8879L159.237 9.26053H163.503L167.096 15.5997H167.132L170.725 9.26053H175ZM175 9.26053L168.936 18.8789V24.7395H165.274V18.8879L159.237 9.26053H163.503L167.096 15.5997H167.132L170.725 9.26053H175ZM151.769 24.7395H148.589L141.094 15.4342V24.7395H137.414V9.26053H140.594L148.089 18.5211V9.26053H151.769V24.7395ZM111.885 16.9553C111.876 16.2275 111.983 15.5028 112.203 14.8079C112.396 14.1295 112.687 13.4818 113.066 12.8842C113.441 12.2735 113.9 11.7166 114.429 11.2289C115.487 10.2374 116.785 9.52896 118.199 9.17105C119.701 8.76846 121.285 8.76846 122.787 9.17105C123.503 9.34562 124.191 9.6166 124.831 9.97632C125.468 10.3271 126.062 10.7473 126.603 11.2289C127.143 11.7069 127.602 12.2655 127.966 12.8842C128.337 13.486 128.627 14.1326 128.829 14.8079C129.238 16.2264 129.238 17.7289 128.829 19.1474C128.635 19.8257 128.345 20.4735 127.966 21.0711C127.209 22.2872 126.144 23.2891 124.877 23.9789C122.853 25.0762 120.478 25.3645 118.244 24.7842C117.517 24.6019 116.815 24.3314 116.155 23.9789C114.897 23.276 113.836 22.2769 113.066 21.0711C112.695 20.4692 112.405 19.8226 112.203 19.1474C111.961 18.4421 111.853 17.699 111.885 16.9553ZM115.519 16.9553C115.518 17.6319 115.658 18.3016 115.928 18.9237C116.166 19.5331 116.538 20.0831 117.018 20.5342C117.714 21.2288 118.605 21.7024 119.576 21.8937C120.548 22.0851 121.556 21.9855 122.469 21.6079C123.07 21.3878 123.602 21.0179 124.014 20.5342C124.479 20.0808 124.836 19.5305 125.058 18.9237C125.558 17.6421 125.558 16.2237 125.058 14.9421C124.822 14.3555 124.467 13.8227 124.013 13.3764C123.56 12.9302 123.019 12.58 122.424 12.3474C121.185 11.8553 119.801 11.8553 118.562 12.3474C117.966 12.5777 117.424 12.9281 116.973 13.3763C116.507 13.8297 116.15 14.38 115.928 14.9868C115.666 15.6116 115.527 16.2796 115.519 16.9553ZM94.8954 9.26053H98.5749V21.6526H105.162V24.7395H94.8954V9.26053ZM69.3204 16.9553C69.3113 16.2275 69.4186 15.5028 69.6384 14.8079C69.8318 14.1295 70.1224 13.4818 70.5015 12.8842C70.8766 12.2735 71.3351 11.7166 71.8643 11.2289C72.3893 10.7479 72.9685 10.3276 73.5905 9.97632C74.231 9.6166 74.9189 9.34562 75.6347 9.17105C77.1367 8.76846 78.7207 8.76846 80.2227 9.17105C81.6568 9.53776 82.9709 10.2619 84.0385 11.2737C85.0897 12.2511 85.8579 13.4863 86.2644 14.8526C86.6733 16.2711 86.6733 17.7736 86.2644 19.1921C86.071 19.8705 85.7804 20.5182 85.4013 21.1158C85.038 21.7345 84.5781 22.2931 84.0385 22.7711C83.5178 23.2769 82.9201 23.6995 82.2669 24.0237C81.6263 24.3834 80.9385 24.6544 80.2227 24.8289C77.9884 25.4 75.6171 25.1121 73.5905 24.0237C72.3326 23.3207 71.2713 22.3216 70.5015 21.1158C70.1306 20.514 69.8405 19.8674 69.6384 19.1921C69.4216 18.4659 69.3144 17.7122 69.3204 16.9553ZM72.9545 17C72.9541 17.6766 73.0932 18.3463 73.3634 18.9684C73.6407 19.5572 74.0084 20.1004 74.4536 20.5789C74.9076 21.0387 75.4518 21.4027 76.0531 21.6488C76.6544 21.8949 77.3003 22.018 77.9514 22.0105C78.6238 22.0108 79.2889 21.8737 79.9047 21.6079C80.5039 21.3612 81.0451 20.9957 81.4946 20.5342C81.9605 20.0808 82.3175 19.5305 82.5395 18.9237C83.0393 17.6421 83.0393 16.2237 82.5395 14.9421C82.2887 14.363 81.9349 13.8328 81.4946 13.3763C80.5647 12.4655 79.3084 11.9514 77.9968 11.9447C76.6853 11.9514 75.429 12.4655 74.499 13.3763C74.0332 13.8297 73.6762 14.38 73.4542 14.9868C73.1186 15.6059 72.9468 16.2983 72.9545 17ZM62.2339 22.5921C61.8613 22.9439 61.4668 23.2726 61.0528 23.5763C60.14 24.2203 59.105 24.6767 58.0093 24.9184C57.4159 25.0663 56.8036 25.1266 56.1922 25.0974C54.7051 25.1063 53.2404 24.7411 51.9366 24.0365C50.6329 23.3319 49.5334 22.3112 48.7423 21.0711C48.3715 20.4692 48.0813 19.8226 47.8792 19.1474C47.4704 17.7289 47.4704 16.2264 47.8792 14.8079C48.0727 14.1295 48.3633 13.4818 48.7423 12.8842C49.1174 12.2735 49.576 11.7166 50.1051 11.2289C50.6301 10.7479 51.2093 10.3276 51.8313 9.97632C52.4719 9.6166 53.1598 9.34562 53.8755 9.17105C54.6187 8.99105 55.3815 8.90092 56.1468 8.90263C56.7423 8.89567 57.3367 8.9557 57.9184 9.08158C58.4637 9.21327 58.9958 9.39294 59.5084 9.61842C60.0022 9.84308 60.4736 10.1127 60.9166 10.4237C61.3549 10.731 61.7653 11.0752 62.1431 11.4526L59.9172 13.7789C59.4651 13.2256 58.8901 12.7818 58.2364 12.4816C57.5827 12.1802 56.8686 12.0274 56.1468 12.0342C54.8353 12.0408 53.579 12.555 52.649 13.4658C52.1832 13.9192 51.8262 14.4695 51.6042 15.0763C51.1043 16.3579 51.1043 17.7763 51.6042 19.0579C51.865 19.6556 52.2345 20.2014 52.6944 20.6684C53.2784 21.2604 54.007 21.6947 54.8104 21.9297C55.6138 22.1647 56.465 22.1926 57.2825 22.0105C57.6312 21.9386 57.9677 21.818 58.2819 21.6526C58.6001 21.5004 58.9042 21.3207 59.1904 21.1158C59.4693 20.9007 59.7277 20.6611 59.9626 20.4L62.2339 22.5921ZM25.1207 24.7395H32.616L25.1207 32.1211V24.7395ZM9.3578 24.7395V32.1211L1.86248 24.7395H9.3578ZM9.3578 9.26053H1.86248L9.3578 1.87895V9.26053ZM25.1207 9.26053V1.87895L32.616 9.26053H25.1207ZM10.2655 16.9905L17.2679 10.0944L24.2703 16.9905L17.2679 23.8867L10.2655 16.9905ZM8.72184 17C8.72184 18.139 8.26238 19.2314 7.44455 20.0368C6.62672 20.8423 5.51751 21.2947 4.36092 21.2947C3.20433 21.2947 2.09511 20.8423 1.27728 20.0368C0.459453 19.2314 4.81911e-08 18.139 0 17C4.81911e-08 15.861 0.459453 14.7686 1.27728 13.9632C2.09511 13.1577 3.20433 12.7053 4.36092 12.7053C5.51751 12.7053 6.62672 13.1577 7.44455 13.9632C8.26238 14.7686 8.72184 15.861 8.72184 17ZM34.4785 17C34.4785 18.139 34.0191 19.2314 33.2012 20.0368C32.3834 20.8423 31.2742 21.2947 30.1176 21.2947C28.961 21.2947 27.8518 20.8423 27.034 20.0368C26.2161 19.2314 25.7567 18.139 25.7567 17C25.7567 15.861 26.2161 14.7686 27.034 13.9632C27.8518 13.1577 28.961 12.7053 30.1176 12.7053C31.2742 12.7053 32.3834 13.1577 33.2012 13.9632C34.0191 14.7686 34.4785 15.861 34.4785 17ZM21.6229 29.7053C21.6229 30.8443 21.1634 31.9367 20.3456 32.7421C19.5278 33.5475 18.4186 34 17.262 34C16.1054 34 14.9962 33.5475 14.1783 32.7421C13.3605 31.9367 12.901 30.8443 12.901 29.7053C12.901 29.1413 13.0138 28.5828 13.233 28.0617C13.4522 27.5407 13.7734 27.0672 14.1783 26.6684C14.5833 26.2696 15.064 25.9533 15.5931 25.7374C16.1222 25.5216 16.6893 25.4105 17.262 25.4105C17.8346 25.4105 18.4017 25.5216 18.9308 25.7374C19.4599 25.9533 19.9407 26.2696 20.3456 26.6684C20.7505 27.0672 21.0718 27.5407 21.2909 28.0617C21.5101 28.5828 21.6229 29.1413 21.6229 29.7053ZM21.6229 4.29474C21.6229 5.43377 21.1634 6.52616 20.3456 7.33157C19.5278 8.13699 18.4186 8.58947 17.262 8.58947C16.1054 8.58947 14.9962 8.13699 14.1783 7.33157C13.3605 6.52616 12.901 5.43377 12.901 4.29474C12.901 3.1557 13.3605 2.06332 14.1783 1.2579C14.9962 0.45248 16.1054 4.74598e-08 17.262 0C18.4186 4.74598e-08 19.5278 0.45248 20.3456 1.2579C21.1634 2.06332 21.6229 3.1557 21.6229 4.29474Z" fill="white"/>
</svg>
