<svg width="93" height="93" viewBox="0 0 93 93" fill="none" xmlns="http://www.w3.org/2000/svg">
<g id="Frame 6356903">
<g id="Group">
<g id="Clip path group">
<mask id="mask0_1_1054" style="mask-type:luminance" maskUnits="userSpaceOnUse" x="0" y="0" width="93" height="93">
<g id="SVGID_2_">
<path id="Vector" d="M93 0H0V93H93V0Z" fill="white"/>
</g>
</mask>
<g mask="url(#mask0_1_1054)">
<g id="Group_2">
<path id="Vector_2" d="M1.5 46.3919C1.5 21.5912 21.5912 1.5 46.3919 1.5C71.1925 1.5 91.2837 21.5912 91.2837 46.3919C91.2837 71.1925 71.1925 91.2837 46.3919 91.2837C21.5885 91.2297 1.5 71.1356 1.5 46.3919Z" fill="#5865F2" stroke="white" stroke-width="3"/>
<path id="Vector_3" d="M67.2628 27.5215C63.3157 25.7372 59.2064 24.4395 54.9349 23.7366C54.3942 24.7099 53.7994 25.9535 53.3669 26.9808C48.825 26.2779 44.2291 26.2779 39.6872 26.9808C39.2006 25.8454 38.6599 24.764 38.0651 23.7366C33.7936 24.4395 29.6302 25.7372 25.7372 27.5756C17.9512 39.2006 15.8425 50.5012 16.8698 61.6936C21.4657 65.1 26.5483 67.6953 32.0093 69.3174C33.2529 67.6413 34.3343 65.911 35.2535 64.0727C33.4692 63.4238 31.793 62.6128 30.171 61.6395C30.6035 61.3151 30.982 60.9907 31.4146 60.6663C40.9849 65.2081 52.1233 65.2081 61.6936 60.6663C62.1262 60.9907 62.5047 61.3151 62.9372 61.6395C61.3151 62.6128 59.5849 63.4238 57.8006 64.0727C58.7198 65.911 59.8012 67.6413 61.0448 69.3174C66.5058 67.6413 71.6425 65.1 76.1843 61.6936C77.3739 48.7169 74.0215 37.4704 67.2628 27.5215ZM36.5512 54.7727C33.5773 54.7727 31.1983 52.0692 31.1983 48.7709C31.1983 45.4727 33.5773 42.7151 36.5512 42.7151C39.5791 42.7151 41.9582 45.4186 41.9582 48.7709C41.9041 52.0692 39.5791 54.7727 36.5512 54.7727ZM56.4489 54.7727C53.475 54.7727 51.0959 52.0692 51.0959 48.7709C51.0959 45.4727 53.475 42.7151 56.4489 42.7151C59.4768 42.7151 61.8558 45.4186 61.8018 48.7709C61.7477 52.1233 59.4227 54.7727 56.4489 54.7727Z" fill="white"/>
</g>
</g>
</g>
</g>
</g>
</svg>
